<svg width="321" height="321" viewBox="0 0 321 321" fill="none" xmlns="http://www.w3.org/2000/svg">
<path d="M160.5 0V29.0643C233.09 29.0643 291.936 87.9101 291.936 160.5C291.936 233.09 233.09 291.936 160.5 291.936V321C249.142 321 321 249.142 321 160.5C321 71.8582 249.142 0 160.5 0Z" fill="#008EAB"/>
<path d="M160.5 0C71.8582 0 0 71.8582 0 160.5C0 249.142 71.8582 321 160.5 321C238.44 321 301.624 249.142 301.624 160.5C301.624 71.8582 238.44 0 160.5 0ZM160.5 282.247C93.2605 282.247 38.7526 227.739 38.7526 160.5C38.7526 93.2605 93.2605 38.7526 160.5 38.7526C227.739 38.7526 282.247 93.2605 282.247 160.5C282.247 227.739 227.739 282.247 160.5 282.247Z" fill="#008EAB"/>
</svg>
