<svg width="279" height="280" viewBox="0 0 279 280" fill="none" xmlns="http://www.w3.org/2000/svg">
<path d="M17.5241 3.88193C21.4293 -0.0233078 27.761 -0.0233078 31.6662 3.88193L275.618 247.834C279.523 251.739 279.523 258.071 275.618 261.976L261.476 276.118C257.571 280.023 251.239 280.023 247.334 276.118L3.38194 32.1662C-0.523306 28.261 -0.52331 21.9293 3.38193 18.0241L17.5241 3.88193Z" fill="#F44336"/>
<path d="M17.5241 3.88193C21.4293 -0.0233078 27.761 -0.0233078 31.6662 3.88193L275.618 247.834C279.523 251.739 279.523 258.071 275.618 261.976L261.476 276.118C257.571 280.023 251.239 280.023 247.334 276.118L3.38194 32.1662C-0.523306 28.261 -0.52331 21.9293 3.38193 18.0241L17.5241 3.88193Z" fill="#F44336"/>
<path d="M3.38193 261.976C-0.523308 258.071 -0.523308 251.739 3.38193 247.834L247.334 3.88206C251.239 -0.0231857 257.571 -0.0231857 261.476 3.88206L275.618 18.0242C279.523 21.9294 279.523 28.2611 275.618 32.1663L31.6662 276.118C27.761 280.023 21.4293 280.023 17.5241 276.118L3.38193 261.976Z" fill="#F44336"/>
<path d="M3.38193 261.976C-0.523308 258.071 -0.523308 251.739 3.38193 247.834L247.334 3.88206C251.239 -0.0231857 257.571 -0.0231857 261.476 3.88206L275.618 18.0242C279.523 21.9294 279.523 28.2611 275.618 32.1663L31.6662 276.118C27.761 280.023 21.4293 280.023 17.5241 276.118L3.38193 261.976Z" fill="#F44336"/>
</svg>
